<svg xmlns="http://www.w3.org/2000/svg" viewBox="0 0 200 48" fill="currentColor">
  <!-- QD Logo -->
  <g transform="translate(0, 12) scale(0.8)">
    <path d="M12 4c-4.418 0-8 3.582-8 8s3.582 8 8 8c1.848 0 3.545-.627 4.897-1.688L20 21.414V4H12zm0 12c-2.206 0-4-1.794-4-4s1.794-4 4-4 4 1.794 4 4-1.794 4-4 4z"/>
    <path d="M36 4h-8v16h8c4.418 0 8-3.582 8-8s-3.582-8-8-8zm0 12h-4V8h4c2.206 0 4 1.794 4 4s-1.794 4-4 4z"/>
    <path class="glow" d="M12 2c-5.523 0-10 4.477-10 10s4.477 10 10 10c2.314 0 4.444-.784 6.14-2.1L22 24V2H12zm0 16c-3.314 0-6-2.686-6-6s2.686-6 6-6 6 2.686 6 6-2.686 6-6 6z" fill="none" stroke="currentColor" stroke-width="0.5" filter="url(#glow)"/>
    <path class="glow" d="M36 2h-10v20h10c5.523 0 10-4.477 10-10S41.523 2 36 2zm0 16h-6V6h6c3.314 0 6 2.686 6 6s-2.686 6-6 6z" fill="none" stroke="currentColor" stroke-width="0.5" filter="url(#glow)"/>
  </g>
  
  <!-- aria text -->
  <g transform="translate(60, 24)">
    <path d="M8 0l-2 16h4l.5-4h3l.5 4h4L16 0h-4l.5 8h-1L11 0H8zm14 0v16h4V9l4 7h4V0h-4v7l-4-7h-4zm26 0v16h4V9l4 7h4V0h-4v7l-4-7h-4zm16 0v16h4V0h-4zm10 0v16h4V9l4 7h4V0h-4v7l-4-7h-4z"/>
  </g>

  <defs>
    <filter id="glow" x="-50%" y="-50%" width="200%" height="200%">
      <feGaussianBlur stdDeviation="1" result="coloredBlur"/>
      <feMerge>
        <feMergeNode in="coloredBlur"/>
        <feMergeNode in="SourceGraphic"/>
      </feMerge>
    </filter>
    <linearGradient id="gradient" x1="0%" y1="0%" x2="100%" y2="0%">
      <stop offset="0%" style="stop-color:#04a3ff"/>
      <stop offset="50%" style="stop-color:#00ffd3"/>
      <stop offset="100%" style="stop-color:#65ff00"/>
    </linearGradient>
  </defs>
</svg>
