<?xml version="1.0" encoding="UTF-8"?>
<svg width="200" height="80" viewBox="0 0 200 80" xmlns="http://www.w3.org/2000/svg">
  <defs>
    <linearGradient id="bgGradient" x1="0%" y1="0%" x2="100%" y2="100%">
      <stop offset="0%" stop-color="#2a2a2a"/>
      <stop offset="100%" stop-color="#1a1a1a"/>
    </linearGradient>
  </defs>
  
  <!-- Background -->
  <rect width="200" height="80" fill="url(#bgGradient)" rx="8"/>
  
  <!-- Main "me" text -->
  <text x="20" y="35" font-family="Arial, sans-serif" font-size="24" font-weight="bold" fill="white">me</text>
  
  <!-- MATCHMAKING text -->
  <text x="55" y="28" font-family="Arial, sans-serif" font-size="16" font-weight="bold" fill="white">MATCHMAKING</text>
  
  <!-- Tagline -->
  <text x="55" y="45" font-family="Arial, sans-serif" font-size="10" fill="#cccccc">Events • Leads • Branding</text>
  
  <!-- Decorative dots pattern -->
  <g fill="#444444" opacity="0.6">
    <circle cx="15" cy="15" r="1"/>
    <circle cx="25" cy="15" r="1"/>
    <circle cx="35" cy="15" r="1"/>
    <circle cx="45" cy="15" r="1"/>
    <circle cx="55" cy="15" r="1"/>
    
    <circle cx="15" cy="65" r="1"/>
    <circle cx="25" cy="65" r="1"/>
    <circle cx="35" cy="65" r="1"/>
    <circle cx="45" cy="65" r="1"/>
    <circle cx="55" cy="65" r="1"/>
    
    <circle cx="185" cy="15" r="1"/>
    <circle cx="175" cy="15" r="1"/>
    <circle cx="165" cy="15" r="1"/>
    <circle cx="155" cy="15" r="1"/>
    <circle cx="145" cy="15" r="1"/>
    
    <circle cx="185" cy="65" r="1"/>
    <circle cx="175" cy="65" r="1"/>
    <circle cx="165" cy="65" r="1"/>
    <circle cx="155" cy="65" r="1"/>
    <circle cx="145" cy="65" r="1"/>
  </g>
</svg>