<svg xmlns="http://www.w3.org/2000/svg" xmlns:xlink="http://www.w3.org/1999/xlink" width="1200" height="630" viewBox="0 0 1200 630">
  <defs>
    <linearGradient id="bg" x1="0%" y1="0%" x2="100%" y2="100%">
      <stop offset="0%" style="stop-color:#000212;stop-opacity:1" />
      <stop offset="50%" style="stop-color:#001a3a;stop-opacity:1" />
      <stop offset="100%" style="stop-color:#000212;stop-opacity:1" />
    </linearGradient>
    <linearGradient id="glow" x1="0%" y1="0%" x2="100%" y2="0%">
      <stop offset="0%" style="stop-color:#04a3ff;stop-opacity:0.8" />
      <stop offset="50%" style="stop-color:#00ced1;stop-opacity:0.9" />
      <stop offset="100%" style="stop-color:#04a3ff;stop-opacity:0.8" />
    </linearGradient>
    <filter id="blur">
      <feGaussianBlur in="SourceGraphic" stdDeviation="40" />
    </filter>
  </defs>

  <rect width="1200" height="630" fill="url(#bg)" />

  <!-- Ambient glow circles -->
  <circle cx="300" cy="315" r="200" fill="#04a3ff" opacity="0.08" filter="url(#blur)" />
  <circle cx="900" cy="315" r="200" fill="#00ced1" opacity="0.08" filter="url(#blur)" />
  <circle cx="600" cy="200" r="150" fill="#65ff00" opacity="0.04" filter="url(#blur)" />

  <!-- Grid lines -->
  <g stroke="rgba(4,163,255,0.06)" stroke-width="1">
    <line x1="0" y1="105" x2="1200" y2="105" />
    <line x1="0" y1="210" x2="1200" y2="210" />
    <line x1="0" y1="315" x2="1200" y2="315" />
    <line x1="0" y1="420" x2="1200" y2="420" />
    <line x1="0" y1="525" x2="1200" y2="525" />
    <line x1="200" y1="0" x2="200" y2="630" />
    <line x1="400" y1="0" x2="400" y2="630" />
    <line x1="600" y1="0" x2="600" y2="630" />
    <line x1="800" y1="0" x2="800" y2="630" />
    <line x1="1000" y1="0" x2="1000" y2="630" />
  </g>

  <!-- Z logomark (embedded directly) -->
  <svg x="425" y="60" width="350" height="210" viewBox="0 0 1693 1017">
    <defs>
      <linearGradient id="zGrad" x1="0%" y1="0%" x2="100%" y2="100%">
        <stop offset="0%" style="stop-color:#04a3ff;stop-opacity:1" />
        <stop offset="50%" style="stop-color:#00ced1;stop-opacity:1" />
        <stop offset="100%" style="stop-color:#04a3ff;stop-opacity:1" />
      </linearGradient>
      <g>
        <g id="z-0-0">
          <path d="M 288.703125 -629.4375 C 288.703125 -670.234375 315.234375 -735.53125 426.4375 -742.671875 C 431.53125 -743.6875 435.609375 -747.765625 435.609375 -753.890625 C 435.609375 -765.109375 427.453125 -765.109375 416.234375 -765.109375 C 314.21875 -765.109375 221.375 -713.078125 220.359375 -637.59375 L 220.359375 -405.015625 C 220.359375 -365.21875 220.359375 -332.578125 179.546875 -298.90625 C 143.84375 -269.328125 105.078125 -267.28125 82.640625 -266.265625 C 77.53125 -265.25 73.453125 -261.15625 73.453125 -255.046875 C 73.453125 -244.84375 79.578125 -244.84375 89.78125 -243.828125 C 157.109375 -239.734375 206.078125 -203.015625 217.296875 -153.03125 C 220.359375 -141.796875 220.359375 -139.765625 220.359375 -103.03125 L 220.359375 98.953125 C 220.359375 141.796875 220.359375 174.453125 269.328125 213.21875 C 309.109375 243.828125 376.4375 255.046875 416.234375 255.046875 C 427.453125 255.046875 435.609375 255.046875 435.609375 243.828125 C 435.609375 233.625 429.5 233.625 419.296875 232.59375 C 355.015625 228.515625 305.03125 195.875 291.765625 143.84375 C 288.703125 134.65625 288.703125 132.625 288.703125 95.890625 L 288.703125 -118.34375 C 288.703125 -165.265625 280.546875 -182.609375 247.90625 -215.25 C 226.484375 -236.6875 196.890625 -246.875 168.328125 -255.046875 C 251.984375 -278.5 288.703125 -325.4375 288.703125 -384.609375 Z M 288.703125 -629.4375 "/>
        </g>
        <g id="z-0-1">
          <path d="M 477.4375 -358.078125 C 518.234375 -357.0625 537.609375 -352.984375 543.734375 -347.875 C 544.75 -346.859375 545.78125 -342.78125 546.796875 -340.734375 C 546.796875 -330.53125 554.953125 -330.53125 560.0625 -330.53125 C 576.375 -330.53125 608 -347.875 608 -369.296875 C 608 -394.8125 565.15625 -399.90625 541.703125 -400.921875 C 539.65625 -400.921875 525.375 -401.953125 525.375 -402.96875 C 525.375 -405.015625 541.703125 -420.3125 549.859375 -429.5 C 646.765625 -526.390625 782.453125 -679.421875 782.453125 -689.625 C 782.453125 -692.6875 781.4375 -696.765625 774.296875 -696.765625 C 767.15625 -696.765625 740.625 -690.640625 711.046875 -668.203125 C 692.6875 -668.203125 667.171875 -668.203125 608 -679.421875 C 551.890625 -689.625 515.171875 -696.765625 475.40625 -696.765625 C 410.109375 -696.765625 348.90625 -673.296875 294.828125 -640.65625 C 203.015625 -582.5 194.859375 -523.328125 194.859375 -522.3125 C 194.859375 -519.25 195.875 -514.15625 204.03125 -514.15625 C 223.421875 -514.15625 284.625 -543.734375 293.8125 -571.28125 C 307.078125 -611.0625 320.328125 -633.515625 389.703125 -633.515625 C 398.890625 -633.515625 427.453125 -633.515625 488.65625 -622.296875 C 539.65625 -613.109375 581.484375 -604.953125 618.203125 -604.953125 C 630.453125 -604.953125 642.6875 -604.953125 653.921875 -608 C 599.84375 -544.75 552.921875 -492.75 464.171875 -401.953125 L 362.15625 -401.953125 C 308.09375 -401.953125 298.90625 -371.34375 298.90625 -367.265625 C 298.90625 -358.078125 308.09375 -358.078125 325.4375 -358.078125 L 418.265625 -358.078125 C 411.125 -349.921875 363.1875 -301.96875 230.5625 -182.609375 C 228.515625 -180.578125 155.0625 -114.265625 70.390625 -42.84375 C 57.125 -31.625 37.75 -14.28125 37.75 -7.140625 C 37.75 -4.078125 38.765625 0 45.90625 0 C 59.171875 0 80.59375 -10.203125 93.859375 -18.359375 C 112.21875 -28.5625 129.5625 -28.5625 145.890625 -28.5625 C 191.796875 -28.5625 258.109375 -20.40625 305.03125 -15.296875 C 354 -8.15625 422.34375 0 472.34375 0 C 546.796875 0 606.984375 -41.828125 639.625 -71.40625 C 701.859375 -126.5 720.21875 -198.9375 720.21875 -205.046875 C 720.21875 -211.171875 716.140625 -212.203125 711.046875 -212.203125 C 691.65625 -212.203125 630.453125 -182.609375 621.265625 -153.03125 C 615.140625 -133.640625 604.953125 -98.953125 573.328125 -63.25 C 542.71875 -63.25 507.03125 -63.25 413.171875 -75.5 C 362.15625 -81.609375 285.640625 -91.8125 231.578125 -91.8125 C 225.453125 -91.8125 200.96875 -91.8125 181.59375 -87.734375 Z M 477.4375 -358.078125 "/>
        </g>
        <g id="z-0-2">
          <path d="M 220.359375 119.359375 C 220.359375 160.171875 193.828125 225.453125 82.640625 232.59375 C 77.53125 233.625 73.453125 237.703125 73.453125 243.828125 C 73.453125 255.046875 84.671875 255.046875 93.859375 255.046875 C 192.8125 255.046875 287.6875 205.046875 288.703125 127.515625 L 288.703125 -105.078125 C 288.703125 -144.859375 288.703125 -177.515625 329.515625 -211.171875 C 365.21875 -240.765625 403.984375 -242.796875 426.4375 -243.828125 C 431.53125 -244.84375 435.609375 -248.921875 435.609375 -255.046875 C 435.609375 -265.25 429.5 -265.25 419.296875 -266.265625 C 351.953125 -270.34375 302.984375 -307.078125 291.765625 -357.0625 C 288.703125 -368.28125 288.703125 -370.328125 288.703125 -407.046875 L 288.703125 -609.03125 C 288.703125 -651.875 288.703125 -684.515625 239.734375 -723.28125 C 198.9375 -754.90625 128.546875 -765.109375 93.859375 -765.109375 C 84.671875 -765.109375 73.453125 -765.109375 73.453125 -753.890625 C 73.453125 -743.6875 79.578125 -743.6875 89.78125 -742.671875 C 154.046875 -738.59375 204.03125 -705.9375 217.296875 -653.921875 C 220.359375 -644.734375 220.359375 -642.6875 220.359375 -605.96875 L 220.359375 -391.75 C 220.359375 -344.8125 228.515625 -327.46875 261.15625 -294.828125 C 282.59375 -273.40625 312.171875 -263.203125 340.734375 -255.046875 C 257.078125 -231.578125 220.359375 -184.65625 220.359375 -125.484375 Z M 220.359375 119.359375 "/>
        </g>
      </g>
    </defs>
    <g fill="url(#zGrad)" fill-opacity="1">
      <use xlink:href="#z-0-0" x="-72.5512" y="762.136"/>
      <use xlink:href="#z-0-1" x="437.53392" y="762.136"/>
    </g>
    <g fill="url(#zGrad)" fill-opacity="1">
      <use xlink:href="#z-0-2" x="1258.464912" y="762.136"/>
    </g>
  </svg>

  <!-- Zipminator wordmark (embedded directly) -->
  <svg x="250" y="285" width="700" height="80" viewBox="0 0 800 130">
    <defs>
      <linearGradient id="wmGrad" x1="0%" y1="0%" x2="100%" y2="0%">
        <stop offset="0%" style="stop-color:#04a3ff;stop-opacity:1" />
        <stop offset="50%" style="stop-color:#00ffd3;stop-opacity:1" />
        <stop offset="100%" style="stop-color:#65ff00;stop-opacity:1" />
      </linearGradient>
      <g>
        <g id="wm-0-0">
          <path d="M 67.140625 -50.359375 C 72.875 -50.21875 75.609375 -49.640625 76.46875 -48.921875 C 76.609375 -48.78125 76.75 -48.203125 76.90625 -47.921875 C 76.90625 -46.484375 78.046875 -46.484375 78.765625 -46.484375 C 81.0625 -46.484375 85.5 -48.921875 85.5 -51.9375 C 85.5 -55.515625 79.484375 -56.234375 76.1875 -56.390625 C 75.890625 -56.390625 73.890625 -56.53125 73.890625 -56.671875 C 73.890625 -56.953125 76.1875 -59.109375 77.328125 -60.40625 C 90.953125 -74.03125 110.046875 -95.546875 110.046875 -96.984375 C 110.046875 -97.421875 109.890625 -97.984375 108.890625 -97.984375 C 107.890625 -97.984375 104.15625 -97.125 100 -93.96875 C 97.421875 -93.96875 93.828125 -93.96875 85.5 -95.546875 C 77.609375 -96.984375 72.453125 -97.984375 66.859375 -97.984375 C 57.671875 -97.984375 49.0625 -94.6875 41.46875 -90.09375 C 28.546875 -81.921875 27.40625 -73.59375 27.40625 -73.453125 C 27.40625 -73.03125 27.546875 -72.3125 28.6875 -72.3125 C 31.421875 -72.3125 40.03125 -76.46875 41.3125 -80.34375 C 43.1875 -85.9375 45.046875 -89.09375 54.8125 -89.09375 C 56.09375 -89.09375 60.109375 -89.09375 68.71875 -87.515625 C 75.890625 -86.21875 81.78125 -85.078125 86.9375 -85.078125 C 88.65625 -85.078125 90.390625 -85.078125 91.96875 -85.5 C 84.359375 -76.609375 77.765625 -69.296875 65.28125 -56.53125 L 50.9375 -56.53125 C 43.328125 -56.53125 42.03125 -52.21875 42.03125 -51.65625 C 42.03125 -50.359375 43.328125 -50.359375 45.765625 -50.359375 L 58.828125 -50.359375 C 57.8125 -49.203125 51.078125 -42.46875 32.421875 -25.6875 C 32.140625 -25.390625 21.8125 -16.0625 9.90625 -6.03125 C 8.03125 -4.453125 5.3125 -2.015625 5.3125 -1 C 5.3125 -0.578125 5.453125 0 6.453125 0 C 8.328125 0 11.328125 -1.4375 13.203125 -2.578125 C 15.78125 -4.015625 18.21875 -4.015625 20.515625 -4.015625 C 26.96875 -4.015625 36.296875 -2.875 42.890625 -2.15625 C 49.78125 -1.140625 59.390625 0 66.421875 0 C 76.90625 0 85.359375 -5.875 89.953125 -10.046875 C 98.703125 -17.796875 101.28125 -27.96875 101.28125 -28.84375 C 101.28125 -29.703125 100.71875 -29.84375 100 -29.84375 C 97.265625 -29.84375 88.65625 -25.6875 87.375 -21.515625 C 86.515625 -18.796875 85.078125 -13.921875 80.625 -8.890625 C 76.328125 -8.890625 71.296875 -8.890625 58.109375 -10.609375 C 50.9375 -11.484375 40.171875 -12.90625 32.5625 -12.90625 C 31.703125 -12.90625 28.265625 -12.90625 25.53125 -12.34375 Z M 67.140625 -50.359375 "/>
        </g>
        <g id="wm-1-0">
          <path d="M 29.84375 -35.71875 C 31.5625 -39.890625 31.5625 -40.171875 33 -44.046875 C 34.140625 -46.921875 34.859375 -48.921875 34.859375 -51.65625 C 34.859375 -58.109375 30.265625 -63.40625 23.09375 -63.40625 C 9.609375 -63.40625 4.15625 -42.609375 4.15625 -41.3125 C 4.15625 -39.890625 5.59375 -39.890625 5.875 -39.890625 C 7.3125 -39.890625 7.453125 -40.171875 8.171875 -42.46875 C 12.046875 -55.953125 17.796875 -60.25 22.671875 -60.25 C 23.8125 -60.25 26.25 -60.25 26.25 -55.671875 C 26.25 -52.65625 25.25 -49.640625 24.671875 -48.203125 C 23.53125 -44.46875 17.078125 -27.828125 14.78125 -21.65625 C 13.34375 -17.9375 11.484375 -13.203125 11.484375 -10.1875 C 11.484375 -3.4375 16.359375 1.578125 23.234375 1.578125 C 36.734375 1.578125 42.03125 -19.21875 42.03125 -20.515625 C 42.03125 -21.953125 40.75 -21.953125 40.3125 -21.953125 C 38.875 -21.953125 38.875 -21.515625 38.15625 -19.375 C 35.578125 -10.328125 30.84375 -1.578125 23.53125 -1.578125 C 21.09375 -1.578125 20.078125 -3.015625 20.078125 -6.3125 C 20.078125 -9.90625 20.953125 -11.90625 24.25 -20.65625 Z M 29.84375 -35.71875 "/>
        </g>
        <g id="wm-2-0">
          <path d="M 24.25 -17.5 C 39.59375 -50.640625 60.109375 -55.671875 69.4375 -55.671875 C 77.328125 -55.671875 79.90625 -48.78125 79.90625 -41.75 C 79.90625 -34.4375 76.328125 -21.09375 73.03125 -15.0625 C 67.140625 -4.59375 60.109375 -1.578125 55.671875 -1.578125 C 52.359375 -1.578125 46.484375 -3.15625 46.34375 -10.765625 C 49.640625 -11.484375 49.640625 -14.0625 49.640625 -14.34375 C 49.640625 -14.640625 49.359375 -16.921875 46.765625 -16.921875 C 43.328125 -16.921875 42.75 -12.90625 42.75 -10.609375 C 42.75 -4.015625 47.625 1.578125 55.8125 1.578125 C 71.875 1.578125 88.65625 -17.9375 88.65625 -37.15625 C 88.65625 -48.34375 82.34375 -58.828125 69.71875 -58.828125 C 57.8125 -58.828125 37.875 -52.21875 21.8125 -20.65625 C 18.5 -24.109375 18.5 -28.546875 18.5 -30.5625 C 18.5 -42.890625 26.390625 -60.40625 35.15625 -61.828125 C 36.15625 -61.984375 37.15625 -62.125 37.15625 -63.5625 C 37.15625 -64.984375 35.71875 -64.984375 35.296875 -64.984375 C 24.96875 -64.984375 11.90625 -45.34375 11.90625 -26.546875 C 11.90625 -18.21875 14.203125 -15.5 17.796875 -11.1875 C 14.34375 -2.15625 10.90625 12.765625 10.90625 19.375 C 10.90625 25.53125 13.203125 30.984375 20.375 30.984375 C 29.984375 30.984375 39.3125 18.65625 39.3125 7.3125 C 39.3125 1.859375 38.015625 0.140625 33 -6.171875 C 31.125 -8.75 26.109375 -14.921875 24.25 -17.5 Z M 30.84375 5.59375 C 32.28125 7.75 32.5625 9.328125 32.5625 11.484375 C 32.5625 19.65625 26.390625 27.828125 20.375 27.828125 C 14.484375 27.828125 14.484375 22.234375 14.484375 19.375 C 14.484375 11.90625 18.21875 -1.140625 20.234375 -7.890625 Z M 30.84375 5.59375 "/>
        </g>
        <g id="wm-2-1">
          <path d="M 46.484375 -20.515625 C 46.484375 -21.953125 45.1875 -21.953125 44.765625 -21.953125 C 43.46875 -21.953125 43.1875 -21.375 42.890625 -20.375 C 38.453125 -6.3125 26.546875 -1.578125 20.375 -1.578125 C 18.359375 -1.578125 16.640625 -2.015625 16.640625 -6.3125 C 16.640625 -9.75 17.796875 -13.0625 19.21875 -16.921875 C 25.6875 -34.28125 31.5625 -58.390625 31.5625 -59.546875 C 31.5625 -61.984375 29.84375 -63.40625 27.40625 -63.40625 C 25.828125 -63.40625 23.234375 -62.40625 22.09375 -59.6875 C 21.09375 -56.953125 19.796875 -49.921875 18.9375 -47.203125 C 18.65625 -46.484375 15.0625 -33.859375 14.640625 -32 C 14.203125 -30.5625 12.90625 -26.96875 12.625 -25.53125 C 11.484375 -21.515625 8.03125 -14.78125 8.03125 -10.1875 C 8.03125 -4.296875 12.046875 1.578125 20.078125 1.578125 C 36.4375 1.578125 46.484375 -15.78125 46.484375 -20.515625 Z M 46.484375 -20.515625 "/>
        </g>
        <g id="wm-2-2">
          <path d="M 70.015625 -39.734375 C 70.734375 -42.328125 71.15625 -44.1875 71.15625 -48.0625 C 71.15625 -57.390625 65.421875 -63.40625 54.65625 -63.40625 C 43.328125 -63.40625 35.875 -55.953125 32.421875 -50.9375 C 31.703125 -59.109375 25.6875 -63.40625 19.21875 -63.40625 C 12.625 -63.40625 9.90625 -57.8125 8.609375 -55.234375 C 6.03125 -50.359375 4.15625 -41.75 4.15625 -41.3125 C 4.15625 -39.890625 5.59375 -39.890625 5.875 -39.890625 C 7.3125 -39.890625 7.453125 -40.03125 8.328125 -43.1875 C 10.765625 -53.375 13.625 -60.25 18.796875 -60.25 C 21.234375 -60.25 23.234375 -59.109375 23.234375 -53.65625 C 23.234375 -50.640625 22.8125 -49.0625 20.953125 -41.609375 L 12.625 -8.46875 C 12.1875 -6.3125 11.328125 -3.015625 11.328125 -2.296875 C 11.328125 0.28125 13.34375 1.578125 15.5 1.578125 C 17.21875 1.578125 19.796875 0.4375 20.796875 -2.4375 C 20.953125 -2.71875 22.671875 -9.46875 23.53125 -13.0625 L 26.6875 -25.96875 C 27.546875 -29.125 28.40625 -32.28125 29.125 -35.578125 C 29.40625 -36.4375 30.5625 -41.171875 30.703125 -42.03125 C 31.125 -43.328125 35.578125 -51.359375 40.453125 -55.234375 C 43.609375 -57.53125 48.0625 -60.25 54.234375 -60.25 C 60.40625 -60.25 61.984375 -55.375 61.984375 -50.21875 C 61.984375 -49.5 61.984375 -46.921875 60.546875 -41.171875 L 44.1875 24.8125 C 43.765625 26.546875 43.765625 26.828125 43.765625 27.109375 C 43.765625 29.265625 45.34375 30.984375 47.78125 30.984375 C 52.21875 30.984375 53.234375 26.828125 53.65625 25.25 Z M 70.015625 -39.734375 "/>
        </g>
        <g id="wm-2-3">
          <path d="M 68.4375 -33.859375 C 68.4375 -56.390625 55.09375 -63.40625 44.46875 -63.40625 C 24.8125 -63.40625 5.875 -42.890625 5.875 -22.671875 C 5.875 -9.328125 14.484375 1.578125 29.125 1.578125 C 38.15625 1.578125 48.5 -1.71875 59.390625 -10.46875 C 61.265625 -2.875 66 1.578125 72.453125 1.578125 C 80.0625 1.578125 84.5 -6.3125 84.5 -8.609375 C 84.5 -9.609375 83.640625 -10.046875 82.78125 -10.046875 C 81.78125 -10.046875 81.34375 -9.609375 80.921875 -8.609375 C 78.328125 -1.578125 73.171875 -1.578125 72.875 -1.578125 C 68.4375 -1.578125 68.4375 -12.765625 68.4375 -16.21875 C 68.4375 -19.21875 68.4375 -19.515625 69.875 -21.234375 C 83.359375 -38.15625 86.375 -54.8125 86.375 -54.953125 C 86.375 -55.234375 86.21875 -56.390625 84.640625 -56.390625 C 83.21875 -56.390625 83.21875 -55.953125 82.5 -53.375 C 79.90625 -44.328125 75.171875 -33.421875 68.4375 -24.96875 Z M 58.828125 -14.203125 C 46.203125 -3.15625 35.15625 -1.578125 29.40625 -1.578125 C 20.796875 -1.578125 16.5 -8.03125 16.5 -17.21875 C 16.5 -24.25 20.234375 -39.734375 24.8125 -47.0625 C 31.5625 -57.53125 39.3125 -60.25 44.328125 -60.25 C 58.53125 -60.25 58.53125 -41.46875 58.53125 -30.265625 C 58.53125 -24.96875 58.53125 -16.640625 58.828125 -14.203125 Z M 58.828125 -14.203125 "/>
        </g>
        <g id="wm-2-4">
          <path d="M 42.1875 -53.515625 L 66.28125 -53.515625 C 68.140625 -53.515625 73.3125 -53.515625 73.3125 -58.390625 C 73.3125 -61.828125 70.296875 -61.828125 67.578125 -61.828125 L 27.40625 -61.828125 C 24.53125 -61.828125 18.9375 -61.828125 12.625 -55.09375 C 7.890625 -49.921875 3.875 -43.046875 3.875 -42.1875 C 3.875 -42.03125 3.875 -40.75 5.59375 -40.75 C 6.75 -40.75 7.03125 -41.3125 7.890625 -42.46875 C 14.921875 -53.515625 23.09375 -53.515625 26.109375 -53.515625 L 38.015625 -53.515625 L 23.953125 -7.453125 C 23.390625 -5.734375 22.53125 -2.71875 22.53125 -2.15625 C 22.53125 -0.578125 23.53125 1.71875 26.6875 1.71875 C 31.421875 1.71875 32.140625 -2.296875 32.5625 -4.453125 Z M 42.1875 -53.515625 "/>
        </g>
        <g id="wm-2-5">
          <path d="M 74.3125 -53.515625 C 76.1875 -53.515625 81.34375 -53.515625 81.34375 -58.390625 C 81.34375 -61.828125 78.328125 -61.828125 75.75 -61.828125 L 43.046875 -61.828125 C 21.375 -61.828125 5.453125 -38.15625 5.453125 -21.09375 C 5.453125 -8.46875 13.921875 1.578125 26.96875 1.578125 C 43.90625 1.578125 62.984375 -15.78125 62.984375 -37.875 C 62.984375 -40.3125 62.984375 -47.203125 58.53125 -53.515625 Z M 27.109375 -1.578125 C 20.078125 -1.578125 14.34375 -6.75 14.34375 -17.078125 C 14.34375 -21.375 16.0625 -33.140625 21.09375 -41.609375 C 27.109375 -51.5 35.71875 -53.515625 40.609375 -53.515625 C 52.65625 -53.515625 53.796875 -44.046875 53.796875 -39.59375 C 53.796875 -32.859375 50.9375 -21.09375 46.046875 -13.765625 C 40.453125 -5.3125 32.703125 -1.578125 27.109375 -1.578125 Z M 27.109375 -1.578125 "/>
        </g>
        <g id="wm-3-0">
          <path d="M 24.109375 -53.9375 L 24.109375 -60.25 C 24.109375 -60.40625 19.375 -65.28125 16.921875 -67.71875 L 1 -54.375 L 2.71875 -52.65625 L 8.890625 -56.09375 L 12.625 -52.359375 C 13.0625 -43.328125 13.203125 -34.4375 13.203125 -25.390625 C 13.203125 -19.796875 12.90625 -14.0625 12.1875 -8.328125 L 19.21875 3.15625 L 31.125 -6.890625 C 23.8125 -16.0625 24.109375 -15.0625 24.109375 -21.8125 L 24.109375 -50.078125 L 32.859375 -56.09375 C 37.734375 -54.8125 44.328125 -52.9375 47.921875 -49.78125 C 48.5 -45.046875 48.640625 -40.3125 48.640625 -35.578125 C 48.640625 -18.21875 47.921875 -12.1875 46.625 -6.59375 C 49.203125 -3.734375 52.515625 0 54.375 3.734375 L 66.71875 -6.75 C 60.40625 -14.921875 59.546875 -16.78125 59.546875 -19.375 L 59.546875 -50.640625 C 62.546875 -52.65625 65.5625 -54.375 68.859375 -56.09375 C 73.171875 -54.953125 82.640625 -52.9375 83.21875 -49.0625 C 83.5 -46.484375 83.640625 -43.046875 83.640625 -39.3125 C 83.640625 -19.375 82.921875 -14.640625 82.0625 -8.609375 C 84.9375 -5.015625 89.09375 0 90.53125 2.71875 L 108.609375 -12.625 L 106.890625 -15.0625 C 104.15625 -12.765625 103.015625 -12.34375 100.140625 -11.328125 C 98.125 -13.34375 96.40625 -15.78125 94.828125 -18.078125 L 94.828125 -35.4375 C 94.828125 -43.609375 94.828125 -51.796875 95.40625 -59.96875 C 90.234375 -61.40625 83.640625 -64.984375 78.046875 -68 C 72.171875 -63.125 65.859375 -58.671875 59.546875 -54.375 L 59.546875 -59.96875 C 53.515625 -61.984375 47.78125 -64.84375 42.328125 -68.140625 Z M 24.109375 -53.9375 "/>
        </g>
        <g id="wm-3-1">
          <path d="M 26.109375 -54.8125 L 26.109375 -59.390625 C 22.8125 -62.125 19.65625 -64.984375 16.640625 -68 L 2.15625 -54.65625 L 3.875 -53.234375 L 9.328125 -55.515625 C 10.765625 -54.515625 12.1875 -53.515625 13.484375 -52.359375 C 14.34375 -53.515625 14.78125 -43.765625 14.78125 -35.15625 C 14.78125 -26.390625 14.78125 -19.21875 13.921875 -10.765625 C 18.65625 -5.875 23.390625 -1.140625 28.6875 3.015625 L 49.640625 -11.90625 L 49.359375 -14.640625 L 36.578125 -8.609375 C 32.140625 -11.90625 26.109375 -17.21875 26.109375 -21.8125 L 26.109375 -50.21875 C 26.96875 -51.5 29.125 -53.375 31.421875 -55.09375 C 34.71875 -51.9375 39.453125 -48.0625 43.328125 -48.0625 C 45.046875 -48.0625 46.765625 -48.34375 48.0625 -49.5 L 56.53125 -57.390625 L 56.671875 -59.25 C 55.375 -58.53125 52.796875 -57.09375 51.21875 -57.09375 C 47.78125 -57.09375 43.90625 -63.40625 41.75 -67.28125 Z M 26.109375 -54.8125 "/>
        </g>
      </g>
    </defs>
    <g fill="#00ced1" fill-opacity="1">
      <use xlink:href="#wm-0-0" x="-5.2032" y="98.787"/>
    </g>
    <g fill="#00ced1" fill-opacity="1">
      <use xlink:href="#wm-1-0" x="110.1696" y="98.787"/>
    </g>
    <g fill="#00ced1" fill-opacity="1">
      <use xlink:href="#wm-2-0" x="156.435914" y="98.787"/>
    </g>
    <g fill="#00ced1" fill-opacity="1">
      <use xlink:href="#wm-3-0" x="247.7328" y="98.787"/>
    </g>
    <g fill="#00ced1" fill-opacity="1">
      <use xlink:href="#wm-2-1" x="357.7344" y="98.787"/>
      <use xlink:href="#wm-2-2" x="408.505404" y="98.787"/>
    </g>
    <g fill="#00ced1" fill-opacity="1">
      <use xlink:href="#wm-2-3" x="484.956005" y="98.787"/>
    </g>
    <g fill="#00ced1" fill-opacity="1">
      <use xlink:href="#wm-2-4" x="577.330826" y="98.787"/>
    </g>
    <g fill="#00ced1" fill-opacity="1">
      <use xlink:href="#wm-2-5" x="656.220272" y="98.787"/>
    </g>
    <g fill="#00ced1" fill-opacity="1">
      <use xlink:href="#wm-3-1" x="743.28" y="98.787"/>
    </g>
  </svg>

  <text x="600" y="410" text-anchor="middle" font-family="system-ui, -apple-system, sans-serif" font-size="18" font-weight="400" fill="rgba(255,255,255,0.6)" letter-spacing="8">POST-QUANTUM SECURITY SUPER-APP</text>

  <!-- Module icons row -->
  <g transform="translate(240, 470)" fill="rgba(4,163,255,0.5)" font-size="13" font-family="system-ui, sans-serif" text-anchor="middle">
    <g transform="translate(0,0)"><circle r="20" fill="rgba(4,163,255,0.1)" stroke="rgba(4,163,255,0.3)" stroke-width="1"/><text y="5" fill="rgba(255,255,255,0.7)">MSG</text></g>
    <g transform="translate(92,0)"><circle r="20" fill="rgba(4,163,255,0.1)" stroke="rgba(4,163,255,0.3)" stroke-width="1"/><text y="5" fill="rgba(255,255,255,0.7)">VoIP</text></g>
    <g transform="translate(184,0)"><circle r="20" fill="rgba(4,163,255,0.1)" stroke="rgba(4,163,255,0.3)" stroke-width="1"/><text y="5" fill="rgba(255,255,255,0.7)">VPN</text></g>
    <g transform="translate(276,0)"><circle r="20" fill="rgba(4,163,255,0.1)" stroke="rgba(4,163,255,0.3)" stroke-width="1"/><text y="5" fill="rgba(255,255,255,0.7)">WEB</text></g>
    <g transform="translate(368,0)"><circle r="20" fill="rgba(4,163,255,0.1)" stroke="rgba(4,163,255,0.3)" stroke-width="1"/><text y="5" fill="rgba(255,255,255,0.7)">MAIL</text></g>
    <g transform="translate(460,0)"><circle r="20" fill="rgba(4,163,255,0.1)" stroke="rgba(4,163,255,0.3)" stroke-width="1"/><text y="5" fill="rgba(255,255,255,0.7)">RNG</text></g>
    <g transform="translate(552,0)"><circle r="20" fill="rgba(4,163,255,0.1)" stroke="rgba(4,163,255,0.3)" stroke-width="1"/><text y="5" fill="rgba(255,255,255,0.7)">PII</text></g>
    <g transform="translate(644,0)"><circle r="20" fill="rgba(4,163,255,0.1)" stroke="rgba(4,163,255,0.3)" stroke-width="1"/><text y="5" fill="rgba(255,255,255,0.7)">AI</text></g>
  </g>

  <!-- Bottom tagline -->
  <text x="600" y="550" text-anchor="middle" font-family="system-ui, -apple-system, sans-serif" font-size="14" fill="rgba(255,255,255,0.4)">8 Security Modules  |  NIST FIPS 203/204/205  |  156-Qubit QRNG  |  Kyber768</text>

  <!-- QDaria brand -->
  <text x="600" y="590" text-anchor="middle" font-family="system-ui, -apple-system, sans-serif" font-size="16" font-weight="600" fill="rgba(4,163,255,0.5)">by QDaria AS</text>
</svg>
