<?xml version="1.0" standalone="no"?>
<!DOCTYPE svg PUBLIC "-//W3C//DTD SVG 20010904//EN"
 "http://www.w3.org/TR/2001/REC-SVG-20010904/DTD/svg10.dtd">
<svg version="1.0" xmlns="http://www.w3.org/2000/svg"
 width="1920.000000pt" height="983.000000pt" viewBox="0 0 1920.000000 983.000000"
 preserveAspectRatio="xMidYMid meet">
<metadata>
Created by potrace 1.16, written by Peter Selinger 2001-2019
</metadata>
<g transform="translate(0.000000,983.000000) scale(0.100000,-0.100000)"
fill="#000000" stroke="none">
<path d="M565 9820 c-3 -5 -17 -10 -31 -10 -13 0 -32 -4 -42 -9 -9 -5 -28 -13
-42 -19 -92 -37 -221 -108 -240 -132 -3 -4 -13 -11 -22 -16 -19 -11 -121 -107
-160 -152 l-28 -32 0 -466 0 -467 82 -82 c85 -83 165 -142 253 -187 120 -60
138 -68 161 -68 13 0 24 -4 24 -8 0 -16 174 -35 320 -36 140 -1 286 15 322 35
10 5 27 9 38 9 11 0 20 5 20 10 0 6 11 10 25 10 14 0 25 5 25 10 0 6 6 10 13
10 18 0 67 24 67 33 0 4 6 7 13 7 27 0 154 94 228 169 121 122 109 63 109 556
0 382 -2 433 -16 455 -26 39 -185 193 -234 226 -70 48 -205 114 -275 135 -22
6 -48 15 -57 20 -25 13 -545 12 -553 -1z m433 -559 c12 -6 31 -15 42 -21 105
-53 100 -40 100 -245 l0 -181 -27 -26 c-45 -43 -96 -65 -186 -84 -82 -17 -89
-17 -167 0 -81 17 -123 36 -181 78 l-29 22 0 187 0 188 33 24 c44 32 116 65
152 71 53 8 240 -1 263 -13z"/>
<path d="M2570 9784 c-14 -36 -14 -4279 0 -4305 11 -19 35 -19 1293 -19 759 0
1287 4 1293 9 5 5 34 12 64 15 86 8 144 17 160 23 14 6 102 24 188 39 18 4 35
10 38 15 3 5 16 9 29 9 13 0 27 5 30 10 3 6 17 10 30 10 13 0 27 5 30 10 3 6
17 10 31 10 13 0 24 3 24 8 0 4 19 13 43 20 42 13 148 61 157 72 3 3 19 12 35
20 100 49 314 231 330 281 4 10 10 19 14 19 4 0 18 20 31 45 l23 44 -5 553
c-4 513 -6 556 -23 593 -11 22 -21 42 -25 45 -3 3 -18 23 -34 45 -45 63 -165
177 -233 223 -63 43 -168 103 -178 102 -3 0 -21 7 -41 15 -20 8 -42 15 -48 15
-6 0 -18 6 -28 13 -14 12 -13 14 15 26 31 14 138 86 186 126 44 36 122 119
139 148 9 15 20 27 24 27 4 0 8 6 8 14 0 8 6 16 13 19 18 6 18 1128 0 1135 -7
2 -13 10 -13 18 0 8 -4 14 -10 14 -5 0 -10 5 -10 10 0 17 -101 126 -176 190
-51 43 -166 115 -249 155 -75 35 -97 45 -152 66 -13 5 -33 13 -45 18 -48 19
-131 41 -154 41 -12 0 -25 4 -28 9 -6 9 -37 15 -136 27 -25 3 -49 10 -54 15
-6 5 -38 9 -72 9 -35 0 -66 5 -69 10 -4 7 -422 10 -1221 10 l-1214 0 -10 -26z
m2150 -899 c25 -4 49 -11 55 -16 5 -5 16 -9 25 -9 24 0 131 -54 168 -85 l32
-27 0 -254 0 -254 -42 -31 c-51 -37 -125 -71 -198 -93 -46 -14 -123 -16 -517
-16 l-463 0 0 400 0 401 448 -4 c246 -3 467 -8 492 -12z m230 -1685 c19 -7 54
-22 77 -32 24 -10 46 -18 50 -18 12 0 86 -53 118 -84 l30 -29 0 -235 0 -234
-45 -40 c-66 -59 -187 -117 -245 -118 -12 0 -25 -4 -31 -10 -6 -6 -222 -11
-567 -12 l-557 -3 0 135 c1 74 -1 262 -4 416 -3 155 -3 283 -1 285 2 2 259 2
572 -2 445 -4 576 -8 603 -19z"/>
<path d="M7175 9798 c-3 -7 -4 -985 -3 -2173 l3 -2160 1498 -3 1497 -2 0 510
0 510 -890 0 -890 0 0 1653 c0 1272 -3 1656 -12 1665 -18 18 -1197 17 -1203 0z"/>
<path d="M10807 9803 c-4 -3 -7 -717 -7 -1585 0 -1571 0 -1579 21 -1626 28
-65 43 -96 49 -102 3 -3 12 -18 20 -35 8 -16 17 -32 20 -35 3 -3 14 -22 25
-43 11 -21 28 -47 38 -57 9 -11 17 -24 17 -30 0 -5 4 -10 8 -10 4 0 15 -13 25
-29 33 -56 121 -156 237 -271 124 -123 154 -149 240 -208 30 -20 63 -45 74
-54 11 -10 24 -18 29 -18 5 0 22 -9 37 -20 41 -29 227 -123 285 -144 57 -20
92 -34 117 -47 10 -5 27 -9 37 -9 11 0 23 -4 26 -10 3 -5 19 -10 35 -10 16 0
31 -4 34 -9 6 -9 15 -11 166 -36 189 -32 278 -39 460 -39 182 0 260 7 450 39
151 25 160 27 166 36 3 5 18 9 34 9 16 0 32 5 35 10 3 6 15 10 26 10 10 0 27
4 37 9 29 15 66 29 92 36 31 9 226 102 260 125 14 10 47 29 73 44 26 14 53 31
60 36 7 6 57 43 112 83 136 99 335 298 439 437 23 30 44 57 49 58 4 2 7 8 7
13 0 6 9 20 20 32 12 12 23 32 26 44 4 13 10 23 15 23 5 0 9 7 9 15 0 8 3 15
8 15 4 0 12 10 18 23 7 12 28 55 48 94 l36 72 -2 1583 -3 1583 -605 0 -605 0
-2 -1350 -3 -1350 -35 -70 c-20 -38 -48 -86 -63 -104 -39 -51 -142 -153 -176
-176 -60 -41 -102 -66 -146 -85 -25 -12 -53 -25 -62 -30 -10 -6 -29 -10 -42
-10 -14 0 -27 -4 -30 -9 -9 -15 -82 -23 -250 -28 -104 -2 -163 0 -170 7 -5 5
-23 10 -38 10 -16 0 -36 4 -46 9 -9 5 -42 17 -72 27 -157 51 -377 250 -417
377 -3 9 -9 17 -14 17 -5 0 -9 8 -9 18 0 10 -4 22 -10 28 -6 6 -11 481 -12
1364 l-3 1355 -596 3 c-327 1 -599 -1 -602 -5z"/>
<path d="M15826 9794 c-8 -20 -8 -4298 0 -4318 6 -15 154 -16 1583 -16 867 0
1582 4 1589 8 10 7 12 115 10 508 l-3 499 -987 3 -988 2 0 365 0 365 845 0
845 0 0 460 0 460 -22 5 c-13 3 -393 4 -846 3 l-822 -3 0 328 0 327 978 0
c747 0 981 3 990 12 9 9 12 135 12 504 0 439 -2 493 -16 498 -9 3 -724 6
-1589 6 -1425 0 -1573 -1 -1579 -16z"/>
<path d="M8205 4561 c-16 -5 -61 -9 -99 -10 -38 0 -83 -5 -100 -10 -17 -6 -67
-14 -111 -20 -44 -6 -98 -15 -120 -20 -22 -6 -53 -13 -70 -16 -16 -4 -39 -10
-50 -15 -11 -4 -40 -14 -65 -21 -25 -7 -49 -16 -55 -19 -5 -4 -24 -10 -42 -13
-61 -12 -364 -158 -470 -227 -72 -48 -167 -115 -190 -135 -6 -5 -26 -21 -45
-35 -36 -27 -227 -216 -268 -265 -14 -16 -42 -52 -63 -79 l-37 -49 0 -1354 0
-1354 28 -37 c15 -20 32 -42 37 -48 6 -7 24 -29 41 -50 80 -98 247 -252 349
-323 28 -19 52 -38 55 -42 9 -12 148 -99 159 -99 6 0 11 -4 11 -10 0 -5 9 -10
19 -10 11 0 21 -3 23 -7 5 -12 144 -83 162 -83 9 0 16 -4 16 -10 0 -5 7 -10
15 -10 8 0 23 -4 33 -9 51 -27 153 -64 252 -91 25 -6 53 -16 62 -21 10 -5 31
-9 47 -9 17 0 33 -4 36 -10 3 -5 24 -10 45 -10 21 0 42 -4 45 -10 3 -5 28 -10
55 -10 27 0 52 -4 55 -10 4 -6 160 -10 435 -10 275 0 431 4 435 10 3 6 26 10
50 10 24 0 47 5 50 10 3 6 24 10 45 10 21 0 42 5 45 10 3 6 19 10 36 10 16 0
37 4 47 9 18 9 43 17 155 47 37 10 67 22 67 26 0 5 11 8 25 8 14 0 25 5 25 10
0 6 7 10 15 10 8 0 23 4 33 9 9 4 71 34 137 66 118 57 366 214 435 275 19 18
60 53 90 80 100 88 184 175 240 250 14 18 32 40 40 48 13 14 15 180 18 1351 1
735 0 1345 -2 1356 -3 11 -16 32 -28 46 -13 15 -36 44 -53 65 -32 42 -221 233
-270 274 -100 83 -183 142 -325 232 -50 32 -198 106 -295 148 -22 9 -57 25
-78 34 -21 9 -46 16 -57 16 -10 0 -22 5 -25 10 -3 6 -15 10 -26 10 -10 0 -27
4 -37 9 -29 14 -87 31 -110 31 -11 0 -24 5 -27 10 -3 6 -19 10 -35 10 -16 0
-39 4 -52 10 -22 9 -103 21 -278 41 -118 13 -449 19 -485 10z m435 -1062 c30
-5 70 -12 88 -16 18 -3 35 -9 38 -14 3 -5 16 -9 29 -9 13 0 27 -4 30 -10 3 -5
17 -10 31 -10 13 0 24 -4 24 -10 0 -5 9 -10 19 -10 11 0 22 -4 25 -9 3 -5 17
-12 32 -15 37 -10 181 -107 247 -168 l58 -53 6 -877 6 -877 -69 -68 c-106
-104 -271 -203 -399 -238 -33 -9 -70 -21 -83 -26 -13 -5 -38 -9 -55 -9 -18 0
-38 -5 -45 -12 -16 -16 -428 -16 -444 0 -7 7 -23 12 -37 12 -24 0 -82 15 -111
30 -9 4 -30 11 -49 15 -39 8 -227 103 -256 130 -7 6 -24 19 -40 30 -16 11 -57
48 -92 82 l-63 62 0 867 0 868 64 60 c104 100 177 145 336 208 14 6 33 14 42
19 10 5 27 9 37 9 11 0 22 4 25 9 3 5 23 12 43 15 21 4 58 10 83 15 63 12 413
12 480 0z"/>
<path d="M17180 4519 c-58 -5 -134 -13 -170 -19 -36 -6 -82 -13 -103 -16 -20
-4 -40 -10 -43 -15 -3 -5 -15 -9 -26 -9 -23 0 -81 -17 -110 -31 -10 -5 -24 -9
-33 -9 -41 0 -348 -157 -440 -225 -157 -116 -248 -199 -320 -290 -22 -27 -43
-52 -46 -55 -3 -3 -41 -57 -85 -120 l-79 -115 1 -489 c1 -361 4 -491 12 -494
7 -2 12 -10 12 -17 0 -17 40 -91 83 -155 47 -69 214 -229 297 -285 86 -57 296
-165 322 -165 9 0 20 -5 23 -10 3 -5 17 -10 30 -10 13 0 27 -4 30 -10 3 -5 19
-10 35 -10 16 0 31 -4 34 -9 3 -5 27 -12 53 -16 26 -4 59 -13 74 -20 14 -8 49
-17 78 -21 28 -4 54 -11 57 -15 3 -5 20 -9 39 -9 19 0 36 -4 39 -9 3 -5 20
-11 38 -14 18 -3 56 -10 83 -16 28 -6 60 -13 72 -15 12 -3 30 -9 40 -14 10 -6
45 -13 78 -17 33 -4 65 -11 70 -15 9 -7 32 -13 108 -26 17 -3 41 -9 52 -14 23
-9 133 -37 217 -53 31 -7 60 -15 64 -19 4 -5 16 -8 26 -8 10 0 26 -4 36 -9 9
-5 43 -22 74 -38 l58 -28 0 -226 0 -227 -57 -27 c-133 -62 -188 -79 -303 -97
-148 -23 -503 -8 -534 23 -6 5 -20 9 -32 9 -13 0 -26 5 -29 10 -3 6 -17 10
-31 10 -13 0 -24 5 -24 10 0 6 -6 10 -14 10 -37 0 -204 102 -301 184 -81 68
-175 169 -175 189 0 23 -157 -28 -168 -55 -2 -4 -9 -8 -16 -8 -7 0 -43 -16
-80 -35 -37 -19 -74 -35 -82 -35 -8 0 -14 -4 -14 -10 0 -5 -5 -10 -12 -10 -7
0 -53 -20 -103 -44 -49 -23 -105 -49 -122 -57 -18 -8 -33 -17 -33 -21 0 -5 -9
-8 -20 -8 -11 0 -20 -4 -20 -10 0 -5 -9 -10 -20 -10 -11 0 -20 -4 -20 -10 0
-5 -5 -10 -11 -10 -13 0 -177 -77 -196 -92 -10 -8 -10 -15 -1 -32 6 -11 14
-23 17 -26 3 -3 15 -22 25 -42 11 -21 23 -38 28 -38 4 0 8 -7 8 -15 0 -8 5
-15 10 -15 6 0 10 -6 10 -14 0 -8 3 -16 8 -18 4 -1 20 -21 37 -43 77 -104 226
-252 335 -334 41 -31 81 -62 89 -69 53 -50 242 -162 376 -222 77 -35 86 -38
145 -55 30 -9 69 -20 86 -25 17 -6 42 -10 55 -10 14 0 29 -4 35 -9 5 -5 32
-12 59 -15 28 -4 86 -11 130 -17 107 -15 697 -15 805 -1 47 7 108 14 135 18
28 3 54 10 59 15 6 5 23 9 38 9 16 0 36 4 46 9 9 5 44 16 77 26 70 20 85 26
145 53 25 11 63 28 85 37 245 106 347 175 515 345 119 122 138 142 205 225 21
28 42 52 45 55 31 29 32 55 23 610 -6 428 -11 554 -20 558 -7 2 -13 10 -13 18
0 8 -4 14 -10 14 -5 0 -10 7 -10 15 0 8 -4 15 -9 15 -5 0 -12 8 -16 19 -6 21
-137 156 -178 185 -16 11 -38 28 -49 38 -12 10 -25 18 -29 18 -4 0 -14 6 -21
13 -28 29 -351 177 -385 177 -7 0 -13 5 -13 10 0 6 -11 10 -24 10 -14 0 -28 5
-31 10 -3 6 -17 10 -30 10 -13 0 -27 5 -30 10 -3 6 -15 10 -25 10 -11 0 -53
11 -94 25 -41 14 -84 25 -95 25 -11 0 -23 5 -26 10 -3 6 -21 10 -40 10 -19 0
-37 5 -40 10 -3 6 -21 10 -40 10 -19 0 -36 4 -39 9 -3 4 -33 11 -66 15 -33 4
-78 13 -100 21 -22 8 -67 17 -100 21 -33 4 -63 11 -66 15 -3 5 -23 9 -44 9
-21 0 -42 5 -45 10 -3 6 -21 10 -40 10 -19 0 -37 5 -40 10 -3 6 -18 10 -33 10
-15 0 -63 11 -107 25 -44 14 -88 25 -97 25 -10 0 -18 5 -18 10 0 6 -9 10 -20
10 -11 0 -28 4 -38 9 -9 5 -48 24 -87 42 l-70 34 -3 217 -2 216 32 20 c18 10
53 29 78 42 25 12 53 26 62 31 10 5 26 9 36 9 10 0 22 4 28 9 27 26 320 52
457 40 96 -9 187 -28 187 -40 0 -5 7 -9 15 -9 28 0 176 -92 237 -148 65 -60
131 -131 178 -192 14 -18 31 -39 38 -46 6 -7 12 -17 12 -23 0 -16 47 -13 88 5
81 35 167 79 170 86 2 5 10 8 18 8 7 0 42 15 76 33 35 18 97 48 138 66 127 57
225 105 228 113 2 4 10 8 18 8 9 0 35 11 60 25 25 14 51 25 59 25 8 0 15 5 15
10 0 6 9 10 20 10 17 0 20 7 20 50 0 28 -4 50 -8 50 -5 0 -14 16 -22 35 -8 19
-17 35 -22 35 -4 0 -8 4 -8 10 0 13 -71 124 -82 128 -4 2 -8 8 -8 14 0 5 -6
15 -12 22 -7 7 -26 31 -43 52 -38 49 -157 168 -214 214 -24 19 -48 40 -55 45
-52 49 -263 172 -396 233 -116 52 -142 62 -180 68 -22 4 -43 11 -46 15 -3 5
-18 9 -34 9 -16 0 -32 5 -35 10 -3 6 -21 10 -39 10 -17 0 -36 4 -41 9 -6 5
-30 12 -55 15 -25 4 -74 11 -110 16 -163 25 -419 33 -610 19z"/>
<path d="M2560 2270 l0 -2170 605 0 605 0 5 23 c3 12 4 343 3 735 l-3 712 848
0 847 0 -2 488 -3 487 -845 3 -845 2 0 435 0 435 975 2 975 3 0 505 0 505
-1582 3 -1583 2 0 -2170z"/>
<path d="M11216 4428 c-3 -7 -7 -494 -10 -1083 -3 -588 -9 -1547 -13 -2130 -3
-584 -3 -1073 1 -1088 l6 -27 600 0 600 0 0 575 0 575 343 0 342 0 40 -65 c22
-36 43 -65 47 -65 4 0 8 -6 8 -14 0 -8 4 -16 8 -18 4 -1 41 -55 82 -118 41
-63 78 -116 82 -118 5 -2 8 -10 8 -18 0 -8 5 -14 10 -14 6 0 10 -7 10 -15 0
-8 3 -15 8 -15 4 0 30 -36 57 -80 27 -44 53 -80 57 -80 5 0 8 -4 8 -9 0 -9
156 -246 186 -284 8 -9 14 -21 14 -26 0 -5 4 -11 9 -13 4 -1 36 -47 71 -100
l62 -98 644 0 c539 0 644 2 644 14 0 14 -91 159 -116 183 -8 8 -14 20 -14 28
0 7 -4 15 -8 17 -5 1 -23 26 -42 53 -19 28 -38 55 -42 60 -27 33 -148 217
-148 225 0 6 -3 10 -7 10 -5 0 -26 28 -48 63 -22 34 -43 64 -47 65 -5 2 -8 10
-8 17 0 7 -4 15 -8 17 -5 2 -31 37 -58 78 -27 41 -52 76 -56 78 -5 2 -8 10 -8
18 0 8 -3 14 -7 14 -5 0 -26 28 -48 63 -22 34 -43 64 -47 65 -5 2 -8 10 -8 18
0 8 -4 14 -10 14 -5 0 -10 7 -10 15 0 8 -4 15 -10 15 -5 0 -10 6 -10 14 0 8
-3 16 -8 18 -4 2 -25 31 -47 65 -22 35 -43 63 -47 63 -5 0 -8 5 -8 11 0 6 -9
24 -21 41 -12 16 -20 31 -18 32 2 2 37 20 77 41 39 21 72 42 72 47 0 4 4 8 10
8 23 0 207 144 263 205 10 11 40 43 65 70 57 61 102 120 102 134 0 6 5 11 10
11 6 0 10 7 10 15 0 8 5 15 10 15 6 0 10 6 10 14 0 8 3 16 8 18 4 2 19 28 35
58 l27 55 0 707 c0 653 -1 709 -17 740 -10 18 -21 35 -25 36 -5 2 -8 10 -8 18
0 8 -4 14 -8 14 -4 0 -15 12 -24 28 -44 72 -249 283 -329 337 -24 17 -52 37
-62 46 -9 9 -30 22 -45 29 -15 8 -34 19 -42 26 -25 20 -201 108 -275 138 -38
15 -78 32 -87 37 -10 5 -27 9 -37 9 -11 0 -23 5 -26 10 -3 6 -15 10 -26 10
-10 0 -27 4 -37 9 -28 14 -87 31 -109 31 -11 0 -23 3 -27 8 -4 4 -42 13 -84
21 -108 20 -2440 28 -2446 9z m2009 -997 c6 -5 28 -11 50 -14 136 -17 289 -93
398 -196 l37 -35 0 -364 0 -363 -37 -36 c-44 -41 -147 -113 -163 -113 -5 0
-18 -4 -28 -9 -9 -5 -28 -13 -42 -19 -14 -5 -38 -16 -55 -23 -24 -11 -130 -15
-507 -17 l-478 -3 0 600 0 601 408 0 c227 0 412 -4 417 -9z"/>
</g>
</svg>
