<svg xmlns="http://www.w3.org/2000/svg" viewBox="0 0 48 24" fill="currentColor">
  <path d="M12 4c-4.418 0-8 3.582-8 8s3.582 8 8 8c1.848 0 3.545-.627 4.897-1.688L20 21.414V4H12zm0 12c-2.206 0-4-1.794-4-4s1.794-4 4-4 4 1.794 4 4-1.794 4-4 4z"/>
  <path d="M36 4h-8v16h8c4.418 0 8-3.582 8-8s-3.582-8-8-8zm0 12h-4V8h4c2.206 0 4 1.794 4 4s-1.794 4-4 4z"/>
  <path class="glow" d="M12 2c-5.523 0-10 4.477-10 10s4.477 10 10 10c2.314 0 4.444-.784 6.14-2.1L22 24V2H12zm0 16c-3.314 0-6-2.686-6-6s2.686-6 6-6 6 2.686 6 6-2.686 6-6 6z" fill="none" stroke="currentColor" stroke-width="0.5" filter="url(#glow)"/>
  <path class="glow" d="M36 2h-10v20h10c5.523 0 10-4.477 10-10S41.523 2 36 2zm0 16h-6V6h6c3.314 0 6 2.686 6 6s-2.686 6-6 6z" fill="none" stroke="currentColor" stroke-width="0.5" filter="url(#glow)"/>
  <defs>
    <filter id="glow" x="-50%" y="-50%" width="200%" height="200%">
      <feGaussianBlur stdDeviation="1" result="coloredBlur"/>
      <feMerge>
        <feMergeNode in="coloredBlur"/>
        <feMergeNode in="SourceGraphic"/>
      </feMerge>
    </filter>
  </defs>
</svg>
